<svg version="1.1" xmlns="http://www.w3.org/2000/svg" xmlns:xlink="http://www.w3.org/1999/xlink" width="83.60659" height="113.70496" viewBox="0,0,83.60659,113.70496"><g transform="translate(-169.81854,-135.264)"><g data-paper-data="{&quot;isPaintingLayer&quot;:true}" fill-rule="nonzero" stroke-linecap="butt" stroke-linejoin="miter" stroke-miterlimit="10" stroke-dasharray="" stroke-dashoffset="0" style="mix-blend-mode: normal"><path d="M169.81854,239.98466c0,-23.10431 0,-83.65032 0,-96.17421c0,-4.43367 3.24496,-8.54645 6.68853,-8.54645c9.51752,0 52.75619,0 69.11478,0c3.7129,0 7.80328,6.56839 7.80328,9.28962c0,12.86967 0,72.64292 0,95.4973c0,5.54607 -3.86475,8.91804 -7.80328,8.91804c-9.68068,0 -51.23597,0 -68.37161,0c-4.59309,0 -7.4317,-3.39754 -7.4317,-8.98429z" fill="#333333" stroke="none" stroke-width="none"/><path d="M180.5945,173.09939v-26.38252h62.2155v26.38252z" fill="#c68200" stroke="#c2b027" stroke-width="1.5"/><path d="M180.5945,189.62399c0,-5.13052 4.1591,-9.28962 9.28962,-9.28962c5.13052,0 9.28962,4.1591 9.28962,9.28962c0,5.13052 -4.1591,9.28962 -9.28962,9.28962c-5.13052,0 -9.28962,-4.1591 -9.28962,-9.28962z" fill="#ffffff" stroke="none" stroke-width="0"/><path d="M203.26117,189.62399c0,-5.13052 4.1591,-9.28962 9.28962,-9.28962c5.13052,0 9.28962,4.1591 9.28962,9.28962c0,5.13052 -4.15911,9.28962 -9.28962,9.28962c-5.13052,0 -9.28962,-4.15911 -9.28962,-9.28962z" fill="#ffffff" stroke="none" stroke-width="0"/><path d="M226.29943,189.62399c0,-5.13052 4.1591,-9.28962 9.28962,-9.28962c5.13052,0 9.28962,4.1591 9.28962,9.28962c0,5.13052 -4.15911,9.28962 -9.28962,9.28962c-5.13052,0 -9.28962,-4.15911 -9.28962,-9.28962z" fill="#f7d236" stroke="none" stroke-width="0"/><path d="M226.29944,234.03383c0,-5.13052 4.15911,-9.28962 9.28962,-9.28962c5.13052,0 9.28962,4.1591 9.28962,9.28962c0,5.13052 -4.1591,9.28962 -9.28962,9.28962c-5.13052,0 -9.28962,-4.15911 -9.28962,-9.28962z" fill="#f7d236" stroke="none" stroke-width="0"/><path d="M180.44304,234.40542c0,-5.13052 4.1591,-9.28962 9.28962,-9.28962c0.18947,0 23.19576,0.00567 23.38242,0.01686c4.86775,0.29167 8.72533,4.33172 8.72533,9.27276c0,4.90754 -3.80544,8.92626 -8.62645,9.26631c-0.21905,0.01545 -23.25833,0.02331 -23.48131,0.02331c-5.13052,0 -9.28962,-4.15911 -9.28962,-9.28962z" fill="#ffffff" stroke="none" stroke-width="0"/><path d="M180.5945,212.62399c0,-5.13052 4.1591,-9.28962 9.28962,-9.28962c5.13052,0 9.28962,4.1591 9.28962,9.28962c0,5.13052 -4.15911,9.28962 -9.28962,9.28962c-5.13052,0 -9.28962,-4.15911 -9.28962,-9.28962z" fill="#ffffff" stroke="none" stroke-width="0"/><path d="M203.26118,212.62399c0,-5.13052 4.1591,-9.28962 9.28962,-9.28962c5.13052,0 9.28962,4.1591 9.28962,9.28962c0,5.13052 -4.15911,9.28962 -9.28962,9.28962c-5.13052,0 -9.28962,-4.15911 -9.28962,-9.28962z" fill="#ffffff" stroke="none" stroke-width="0"/><path d="M226.29944,212.62399c0,-5.13052 4.15911,-9.28962 9.28962,-9.28962c5.13052,0 9.28962,4.1591 9.28962,9.28962c0,5.13052 -4.1591,9.28962 -9.28962,9.28962c-5.13052,0 -9.28962,-4.15911 -9.28962,-9.28962z" fill="#f7d236" stroke="none" stroke-width="0"/></g></g></svg>